# xmcd
#
# Track frame offsets: 
#        150
#        9580
#        22374
#        32572
#        44280
#        52668
#        64038
#        74175
#        82639
#        94574
#
# Disc length: 1379 seconds
#
# Revision: 0
# Processed by: cddbd v1.5.2PL0 Copyright (c) Steve Scherf et al.
# Submitted via: ExactAudioCopy v0.99pb4
#
DISCID=7705610a
DTITLE=Elvis Presley - Elvis' Gold Records-Volume 2
DYEAR=1959
DGENRE=R&B
TTITLE0=I Need Your Love Tonight
TTITLE1=Don't
TTITLE2=Wear My Ring Around Your Neck
TTITLE3=My Wish Came True
TTITLE4=I Got Stung
TTITLE5=One Night
TTITLE6=A Big Hunk O' Love
TTITLE7=I Beg Of You
TTITLE8=(Now And Then There's) A Fool Such As I
TTITLE9=Doncha' Think It's Time
EXTD=
EXTT0=
EXTT1=
EXTT2=
EXTT3=
EXTT4=
EXTT5=
EXTT6=
EXTT7=
EXTT8=
EXTT9=
PLAYORDER=
